<svg xmlns="http://www.w3.org/2000/svg" viewBox="0 0 2045.57 596.92"><defs><style>.cls-1{fill:#4faa69;}</style></defs><title>logo2</title><g id="Capa_2" data-name="Capa 2"><g id="Capa_1-2" data-name="Capa 1"><path class="cls-1" d="M491.42,215c-7.68-23.53-25.85-38.26-53.34-39.67-30-1.55-55.89,7.17-77.92,24.76-20.39,16.3-33.9,36.6-44.05,58.74a188.59,188.59,0,0,0-16.86,63.55c-.24,3-1,4-4.63,3.27a81.72,81.72,0,0,0-10.08-.94c-5.92-.45-5.9-.43-5.37-5.44a307.67,307.67,0,0,1,12.21-58.06c8-25.86,18.77-51,27.61-76.57,9-26.14,15-52.51,9.72-80-4.25-22-11.36-43-26.83-61.31-7.61-9-16.56-16.94-25.19-25.15-6.11-5.82-15.05-11.46-20-18.12h-.92c-6.58,7.31-11.56,13.8-19.49,20-8.83,6.89-17.84,13.62-26.46,20.7-12.88,10.59-23.46,22.67-30.1,37.15-11.36,24.78-10.74,50-3.94,75.47,6.44,24.14,16.09,47.45,24.22,71.16,10.32,30.12,18.32,60.62,19.91,92.18.34,6.77.27,6.77-7.44,7.05s-7.5.27-8.24-6.51a190.6,190.6,0,0,0-31.6-87c-13.77-20.49-31.33-37.87-56.48-48.22-21.49-8.84-43.85-11.94-66.58-4.14-25.47,8.75-39.38,26.44-46.95,48.58-1.47,4.3-3.78,31.4-1.85,39.95,6.63,29.37,24.2,50.41,56.39,61.72,10.85,3.81,32.07,11.77,43.46,14,9.07,1.81,8.91,1.84,10.21-6,1.5-9,3.69-17.9,8.11-26.27,5.48-10.38,14.44-15.66,27.73-15.07,3.48.15,7,0,11.46,0-9.88-3.57-19.14-6.07-28.91-6.8-11.18-.84-18,3.05-22.13,12.27-2.45,5.51-3.71,21.66-5.34,27.37-.55,1.92-.92,2.76-3.54,2-18.13-5-50.71-19.09-64-31.27C18.4,283.9,16.4,258.1,20.79,238c8.24-37.78,50.92-57.08,92-41.79,27.32,10.17,46,28.35,58.92,51.07,13.49,23.62,18.52,49.5,25.15,74.93.54,2.07-.26,2.4-2.38,2.62-7.48.77-15,1.31-22.25,3.26-5.58,1.51-11.68,3.23-12.72,9.21-1,5.74,3.9,9,8.52,11.95,7.65,4.88,16.35,8,25.35,10.31,4.11,1.07,6.61,2.67,5.32,6.57a48.27,48.27,0,0,0-1.87,7.72c-2.51,15.43-9.39,28.23-27.16,34.62-3.74,1.35-8.65,3.35-11.59,5.94a34.14,34.14,0,0,0,3.73.28c12.4.5,22.13-3.85,29.18-12.64,7.21-9,10.26-19.33,12.45-30,.61-3,1.05-7.14,3.6-8.56,1.3-.72,5.2.52,8.53,1.32,2.72.66,3.62,2.09,3.57,3.93-.27,10.74-1.61,21.42-3,32.09-2.24,17.44-7.37,135.55-20.26,149.59-2,2.19-3.38,4.83-5.43,7-2.77,2.91-1.57,4.42,1.69,6.12,11.74,6.12,23.82,11.75,35,18.67,6.42,4,25.18,8.16,28.55,14.67h3.69c8.33-5.36,7.38-9.67,13.81-16.64,9-9.71-.4-9.37-9.73.12-2.2,2.24-2,1.87-4.76,3.62-1.8,1.14-3.19,1.46-4.2-.83-1.69-3.84-12.46-6.77-15.64-9.69-8-7.3-15.14-9.66-22.88-17.12-2.34-2.26-8.19-7.22-5.5-16.4,3.13-10.71,11.44-120.1,12.62-130.93s2.08-21.65,2.42-32.52c.31-9.84.3-9.72,11.25-8.11,4.82.71,9.29,1.64,12.76,4.93a13.23,13.23,0,0,1,4.1,11.18c2.52-4.5,2.26-9.14,1-13.7-1.76-6.24-5.8-10.49-13.83-11.05-3.81-.27-7.56-1.17-11.36-1.63-2.38-.29-3.25-1.11-3.16-3.34.32-7.51.42-15,.43-22.55,0-2,.56-2.84,3.07-2.83,12.93.08,25.86.05,38.8,0,2.14,0,2.83.63,3.07,2.51.61,4.65,1.44,9.29,2.4,13.91,2.26,10.8,8.75,16,21.2,16.5,3.21.14,1,.67,10.38.38,5.27-.17,3.41-.87,6.71-1a56.57,56.57,0,0,0,25.47-7.49c11.81-6.63,11.5-14-.69-20-7.08-3.49-14.92-5-22.8-6-3.8-.52-4.35-1.69-3.65-4.62,4.58-19.28,10-38.38,16.43-57.24,8-23.5,20.81-44.67,42.15-61.23,12.58-9.76,26.92-16.64,44.07-17.46,27.51-1.3,51.56,13.74,59.51,37.45,8.35,24.91,2.12,48-13.3,69.52-10.63,14.83-25.45,28.19-43.73,35.43-2.84,1.13-4.75,1.67-5-2.1-.19-3.19-1.05-8.87-1.62-12.05-1.47-8.19-1.76-16.59-5.5-24.37-3-6.28-8.2-8.74-15.47-7.08-8.87,2-16.14,6.61-23.08,11.75,5,0,9.81-.44,14.66-.66,6.1-.28,10.64,2.09,13.76,6.62a35.59,35.59,0,0,1,3.77,7.3c3.47,8.94,5.16,20.72,6.28,30.05.41,3.46,1.57,4,5,2.75,4.26-1.51,8.71-2.62,13-4.08,20.12-6.85,38-18.84,50.5-34.83,9.58-12.29,15-26.32,19.8-40.4C495.26,253.06,495.5,227.44,491.42,215ZM199.51,352.06c-7.09-1.91-13.68-3.64-19.2-7.39-4.59-3.12-4.22-6.11.95-8.67,4.59-2.28,9.71-3.16,14.81-4.09,2-.37,2.52.33,2.8,2C199.83,339.78,199.55,345.64,199.51,352.06Zm20.73-12.57c-.05,1.21,0,2.42,0,3.62-.14,0-.28,6.69-.34,10.07,0,2.46-.48,3.29-3.54,2.75-10.5-1.82-10.49-1.74-10.48-11.16a111.45,111.45,0,0,0-.3-11.27c-.22-2.21.79-2.69,3-3C220.7,328.85,220.69,328.81,220.24,339.49Zm50.54-18.56c.05,2.25-.55,3-3.24,2.85-6.29-.38-12.6-.52-18.22-.73-7,0-13.31-.06-19.62.07-2.33,0-3.22-.47-3.25-2.65-.8-45.73-12.37-90.07-22.87-134.55-5.46-23.14-11.06-43.33-9.26-67.13,2.08-27.47,11.55-52.16,34.22-72.27,9.26-8.22,18.33-16.66,25.92-26.16,1.29-1.61,2.08-1.47,3.27.06,7.65,9.91,16.67,18.91,24.94,28.41,14.89,17.1,21.59,36.88,26.42,57.58,7.34,31.41,2,58.48-7.54,88.53-8,25.13-17.45,49.91-23.95,75.4C273.35,287,270.37,303.8,270.78,320.93Zm27.57,11.95a178.86,178.86,0,0,0,0,23.61c-14.73-1.7-22.63-16.57-20.08-25.07.43-1.45,1.31-1.56,2.63-1.48,5,.29,10.09.62,15.14.82C297.77,330.83,298.46,331.27,298.35,332.88Zm13.18-.89c6.81,1,13.68,1.72,20.37,3.33.88.21,1.76.46,2.62.75,7.74,2.65,8.55,6.46,2.28,11.14-5.58,4.17-12.19,6.72-19.13,8.56-10.13,2.69-10.3,2.5-10.11-8.76-.23-3.7.64-8.08,1.08-12.48C308.79,333,308.87,331.6,311.53,332Z"/><path class="cls-1" d="M696.62,443c-9.09,6.91-24.92,13.45-40.2,13.45-36.55,0-56.91-21.85-56.9-67.32s20.4-67.28,57-67.27c13.28,0,26.19,2.74,35.28,8.93a2.55,2.55,0,0,1,.73,3.27l-6.92,12.55c-.91,1.82-2.91,1.82-4.73.72a45.79,45.79,0,0,0-24.55-6.73c-20.55,0-34.56,15.08-34.57,48.54s14,48.57,34.54,48.57c10.73,0,21.82-4.72,28.92-9.63,1.82-1.27,3.82-1.45,4.91.37L697,439.73A2.3,2.3,0,0,1,696.62,443Z"/><path class="cls-1" d="M786.81,454.67h-6c-7.27,0-10.55-4.55-11.82-11.82l-.18-.73c-4.91,5.09-16.19,14.36-29.1,14.35-20,0-30.19-10.37-30.36-28.74s12.92-29.46,40.75-29.45c4.91,0,10.91.19,17.09.37v-5.46c0-9.27-8.18-13.27-19.09-13.28a48.09,48.09,0,0,0-21.46,4.72c-2,.91-3.64.36-4.55-1.27l-4.9-9.83a3,3,0,0,1,1.27-4.18c6.91-4,16.92-7.45,31.29-7.44,21.46,0,38,7.83,38,28.38l0,42A96.42,96.42,0,0,0,789.54,452C789.91,453.76,788.63,454.67,786.81,454.67Zm-43.64-16.2c10.19,0,19.28-7.81,24-12.36V415c-6.55-.19-12.73-.37-17.1-.37-16.19,0-19.83,6.54-19.83,13.09C730.26,433.74,733.71,438.47,743.17,438.47Z"/><path class="cls-1" d="M862.46,452.89a64.84,64.84,0,0,1-20.73,3.62c-17.1,0-25.1-9.65-25.09-27.29l0-48.37h-7.82a2.41,2.41,0,0,1-2.73-2.72V369l10.55-4.18V353.38a4.51,4.51,0,0,1,2.73-4l14.37-7.09c2-1.09,3.45,0,3.45,2.36v19.1h20.36a2.41,2.41,0,0,1,2.73,2.72v11.64a2.41,2.41,0,0,1-2.73,2.73H837.21l0,43.65c0,10.91,3.45,14.73,11.27,14.56a45.87,45.87,0,0,0,12-2c1.63-.55,2.36.91,2.73,2.91L865,450.16C865.19,451.61,863.74,452.34,862.46,452.89Z"/><path class="cls-1" d="M962.87,401.09v.18c0,9.82-3.46,15.64-14.74,15.63l-50.2.35c2,16.91,12.36,21.83,27.82,21.29,10.55-.36,20.37-5.27,26-9.63,1.46-1.09,2.91-.18,4,1.63l5.45,9.65c.72,1.45-.55,2.73-1.64,3.45a58.09,58.09,0,0,1-37.29,12.9c-20.73,0-45.46-11.11-45.45-47.3,0-31.65,17.48-47.28,43.85-47.27C954.52,362,962.87,388.72,962.87,401.09Zm-20.74,0c-1.26-15.46-7.08-21.1-22.36-21.11-12.91,0-20,6-21.83,21.09Z"/><path class="cls-1" d="M1033.44,364.55l-.19,17.47c0,1.81-.91,2.54-2.73,2.72-16,2-26.19,4.18-26.19,13.27l0,54a2.41,2.41,0,0,1-2.72,2.73h-15.1a2.41,2.41,0,0,1-2.72-2.73l0-85.48a2.42,2.42,0,0,1,2.73-2.73h6c7.27,0,11.82,4.54,11.82,11.82v.54a66.17,66.17,0,0,1,25.46-13.81C1032,361.65,1033.44,362.56,1033.44,364.55Z"/><path class="cls-1" d="M1048.9,337.64c0-8,5.82-12,12.92-12,7.27,0,12.9,4,12.9,12,0,8.73-5.64,12-12.91,12C1054.71,349.65,1048.89,346.37,1048.9,337.64Zm2.72,28.92,0,85.48a2.41,2.41,0,0,0,2.73,2.73h15.1a2.41,2.41,0,0,0,2.73-2.73l0-85.48a2.41,2.41,0,0,0-2.73-2.73h-15.1A2.4,2.4,0,0,0,1051.62,366.56Z"/><path class="cls-1" d="M1180.55,397.35l0,54.74a2.4,2.4,0,0,1-2.72,2.72h-15.1a2.41,2.41,0,0,1-2.73-2.73l0-47.29c0-17.64-4.18-24.37-17.45-24.37-9.82,0-17.64,6.36-22.74,11.81l0,59.84a2.41,2.41,0,0,1-2.73,2.72H1102a2.41,2.41,0,0,1-2.73-2.73l0-85.48a2.41,2.41,0,0,1,2.73-2.73h6c7.28,0,11.82,4.55,11.82,11.64,6.55-6,17.1-13.45,29.83-13.45C1169.1,362.06,1180.56,371.16,1180.55,397.35Z"/><path class="cls-1" d="M1278.91,454.85h-6c-7.27,0-10.54-4.55-11.81-11.83l-.18-.72c-4.92,5.09-16.2,14.36-29.11,14.35-20,0-30.19-10.37-30.36-28.74s12.92-29.46,40.75-29.45c4.91,0,10.91.19,17.09.37v-5.46c0-9.27-8.18-13.28-19.09-13.28a48,48,0,0,0-21.46,4.72c-2,.91-3.64.36-4.54-1.27l-4.91-9.83a3,3,0,0,1,1.27-4.18c6.91-4,16.92-7.45,31.29-7.45,21.46,0,38,7.84,38,28.39l0,42a96.45,96.45,0,0,0,1.81,19.65C1282,453.94,1280.72,454.85,1278.91,454.85Zm-43.65-16.2c10.19,0,19.28-7.81,24-12.36V415.2c-6.55-.19-12.73-.37-17.1-.37-16.19,0-19.83,6.54-19.83,13.08C1222.35,433.92,1225.81,438.65,1235.26,438.65Z"/><path class="cls-1" d="M1375.44,151c1.27.91,1.27,2.55.36,4l-7.09,10.73c-1.46,2.18-3.28,2.18-5.28.91-7.82-4.92-12.36-7.28-20.73-7.28-7.64,0-17.09,4.72-17.1,16.36,0,10,11.63,14.37,22.91,20.56,16.73,9.1,31.82,14.56,31.81,40.56,0,24-18,38-42,38-16.74,0-26.37-4.55-38.74-13.65-1.27-.91-1.45-2.19-.54-3.64l7.28-11.64c.91-1.45,2.54-1.82,4.18-.54,10,7.46,15.09,10.73,27.28,10.74,11.09,0,20.37-7.63,20.37-18.73,0-13.64-10.9-17.46-22-23.47-17.1-9.1-32.74-14.38-32.73-37.11s14.56-36.55,38.39-36.54A56.45,56.45,0,0,1,1375.44,151Z"/><path class="cls-1" d="M1475.05,273h-6c-7.27,0-10.54-4.55-11.82-11.83l-.18-.72c-4.91,5.09-16.19,14.35-29.1,14.35-20,0-30.19-10.38-30.36-28.75s12.92-29.45,40.75-29.44c4.91,0,10.91.19,17.09.37v-5.46c0-9.28-8.19-13.28-19.1-13.28a48,48,0,0,0-21.46,4.72c-2,.91-3.64.36-4.55-1.28l-4.9-9.82a3,3,0,0,1,1.27-4.18c6.91-4,16.92-7.45,31.29-7.45,21.46,0,38,7.84,38,28.39l0,42a96.45,96.45,0,0,0,1.81,19.65C1478.15,272.13,1476.87,273,1475.05,273Zm-43.64-16.2c10.18,0,19.28-7.82,24-12.36v-11.1c-6.55-.18-12.74-.36-17.1-.36-16.19,0-19.83,6.54-19.83,13.08C1418.5,252.11,1422,256.83,1431.41,256.84Z"/><path class="cls-1" d="M1583.82,215.61l0,54.74a2.41,2.41,0,0,1-2.72,2.73H1566a2.41,2.41,0,0,1-2.73-2.73l0-47.28c0-17.64-4.17-24.37-17.45-24.38-9.82,0-17.65,6.36-22.74,11.82l0,59.83a2.41,2.41,0,0,1-2.73,2.73h-15.09a2.41,2.41,0,0,1-2.73-2.73l0-85.48a2.41,2.41,0,0,1,2.73-2.72h6c7.27,0,11.82,4.55,11.82,11.64,6.55-6,17.1-13.45,29.83-13.45C1572.38,180.32,1583.83,189.42,1583.82,215.61Z"/><path class="cls-1" d="M1657.45,271.29a64.92,64.92,0,0,1-20.74,3.63c-17.09,0-25.09-9.65-25.08-27.29V199.25h-7.82a2.41,2.41,0,0,1-2.72-2.73v-9.09l10.55-4.18V171.79a4.55,4.55,0,0,1,2.73-4l14.37-7.09c2-1.09,3.46,0,3.46,2.37v19.09h20.37a2.41,2.41,0,0,1,2.73,2.73v11.64a2.41,2.41,0,0,1-2.72,2.73H1632.2l0,43.65c0,10.91,3.45,14.73,11.27,14.55a45.46,45.46,0,0,0,12-2c1.64-.54,2.37.92,2.73,2.92l1.82,10.18C1660.18,270,1658.72,270.74,1657.45,271.29Z"/><path class="cls-1" d="M1751.1,273.14h-6c-7.27,0-10.54-4.55-11.81-11.83l-.19-.73c-4.91,5.09-16.19,14.37-29.1,14.36-20,0-30.19-10.38-30.36-28.74s12.92-29.46,40.75-29.45c4.91,0,10.91.18,17.09.37v-5.46c0-9.27-8.17-13.28-19.09-13.28a47.82,47.82,0,0,0-21.46,4.72c-2,.91-3.64.36-4.55-1.27l-4.9-9.83a3,3,0,0,1,1.27-4.18c6.91-4,16.92-7.45,31.29-7.45,21.46,0,38,7.84,38,28.39l0,42a96.28,96.28,0,0,0,1.81,19.64C1754.2,272.23,1752.92,273.14,1751.1,273.14Zm-43.64-16.2c10.19,0,19.28-7.82,24-12.36V233.49c-6.55-.19-12.73-.37-17.1-.38-16.18,0-19.83,6.55-19.83,13.09C1694.55,252.21,1698,256.93,1707.46,256.94Z"/><path class="cls-1" d="M698,260.7c-9.09,6.91-24.92,13.45-40.19,13.44-36.56,0-56.92-21.84-56.91-67.31s20.4-67.28,57-67.27c13.28,0,26.19,2.74,35.28,8.92a2.57,2.57,0,0,1,.73,3.28l-6.92,12.55c-.91,1.81-2.91,1.81-4.72.72a45.81,45.81,0,0,0-24.55-6.73c-20.56,0-34.57,15.08-34.58,48.54s14,48.57,34.54,48.57c10.73,0,21.83-4.72,28.92-9.63,1.82-1.27,3.82-1.45,4.91.37l6.91,11.28A2.29,2.29,0,0,1,698,260.7Z"/><path class="cls-1" d="M710.73,226.88c0-34.38,19.85-47.28,46.22-47.27s46.19,14,46.17,47.3c0,30.74-19.84,47.28-46.21,47.27S710.72,257.61,710.73,226.88Zm71.48,0c0-22.18-10.18-29.28-25.27-29.29s-25.28,7.09-25.29,29.28c0,22,10.17,29.28,25.27,29.28S782.2,248.91,782.21,226.9Z"/><path class="cls-1" d="M864.75,269.12S854,274.21,844,274.21c-12.19,0-20.37-4-20.36-28.74l0-106.76a2.4,2.4,0,0,1,2.72-2.72h15.1a2.41,2.41,0,0,1,2.73,2.73l0,102.21c0,10.91,1.08,16,6,16,4,0,8-1.27,12-2.91,1.64-.73,2.73,0,3.09,2l2,10.37C867.66,267.85,866,268.58,864.75,269.12Z"/><path class="cls-1" d="M965.16,218.79V219c0,9.82-3.47,15.64-14.74,15.63l-50.2.35c2,16.91,12.36,21.83,27.82,21.29,10.55-.36,20.37-5.27,26-9.63,1.46-1.09,2.91-.18,4,1.63l5.45,9.65c.73,1.45-.54,2.72-1.63,3.45a58.09,58.09,0,0,1-37.29,12.9c-20.73,0-45.47-11.11-45.45-47.3,0-31.65,17.47-47.28,43.85-47.27C956.8,179.68,965.16,206.42,965.16,218.79Zm-20.74,0c-1.27-15.46-7.08-21.1-22.36-21.11-12.91,0-20,6-21.83,21.09Z"/><path class="cls-1" d="M1066.1,184.27l0,76.2c0,43.28-12.76,57.46-48.95,57.45-9.63,0-19.82-2.55-25.45-4.37-1.28-.36-2.73-1.27-2.55-2.73l1.82-10.18c.37-2,1.09-3.46,2.73-2.91a91.64,91.64,0,0,0,21.46,3.1c24,0,30.37-7.63,30.39-34.91v-4.18c-5.64,5.45-14.92,12.54-26.92,12.53-28.92,0-37.1-26.38-37.09-47.3,0-30.19,18.93-47.27,46-47.26,8.91,0,24.55.73,35.83,1.83C1065.19,181.72,1066.1,182.45,1066.1,184.27Zm-20.58,58.91,0-44.92c-6.55-.37-13.09-.55-18.19-.55-15.27,0-24.91,8-24.92,29.27,0,11.64,3.08,28.92,19.63,28.93C1030.79,255.91,1039.7,248.82,1045.52,243.18Z"/><path class="cls-1" d="M1090.65,155.36c0-8,5.82-12,12.92-12,7.27,0,12.91,4,12.91,12,0,8.73-5.65,12-12.92,12C1096.47,167.36,1090.65,164.09,1090.65,155.36Zm2.72,28.92,0,85.48a2.41,2.41,0,0,0,2.72,2.72h15.1a2.41,2.41,0,0,0,2.73-2.73l0-85.48a2.42,2.42,0,0,0-2.73-2.73H1096.1A2.41,2.41,0,0,0,1093.37,184.28Z"/><path class="cls-1" d="M1136.45,227c0-34.37,19.84-47.28,46.21-47.27s46.19,14,46.18,47.31c0,30.73-19.84,47.27-46.21,47.26S1136.44,257.77,1136.45,227Zm71.48,0c0-22.19-10.18-29.29-25.28-29.29s-25.28,7.08-25.28,29.27c0,22,10.17,29.28,25.26,29.29S1207.92,249.06,1207.93,227.06Z"/><path class="cls-1" d="M1435.39,459.11h-6c-7.27,0-10.55-4.54-11.82-11.82l-.18-.73c-5.28,5.64-15.28,14.37-28.56,14.37-28.91,0-37.1-26.37-37.1-47.28,0-30.19,18.92-47.29,46-47.29,4.72,0,11.27.18,18,.55V325.44a2.41,2.41,0,0,1,2.73-2.73h15.09a2.41,2.41,0,0,1,2.73,2.73V436.75a96.4,96.4,0,0,0,1.82,19.64C1438.49,458.2,1437.21,459.11,1435.39,459.11Zm-43.1-16.55c8.73,0,17.64-7.09,23.46-12.73V384.91c-6.55-.36-13.09-.54-18.19-.54-15.27,0-24.91,8-24.91,29.28C1372.65,425.29,1375.74,442.56,1392.29,442.56Z"/><path class="cls-1" d="M1536.5,459.11h-6c-7.28,0-10.55-4.54-11.82-11.82l-.18-.73c-4.91,5.1-16.19,14.37-29.1,14.37-20,0-30.19-10.36-30.37-28.73s12.91-29.47,40.73-29.47c4.91,0,10.92.19,17.1.37v-5.46c0-9.27-8.18-13.27-19.1-13.27a48,48,0,0,0-21.46,4.73c-2,.91-3.63.36-4.54-1.28l-4.91-9.82a2.94,2.94,0,0,1,1.27-4.18c6.91-4,16.91-7.46,31.28-7.46,21.46,0,38,7.82,38,28.37v42a96.4,96.4,0,0,0,1.82,19.64C1539.59,458.2,1538.32,459.11,1536.5,459.11Zm-43.65-16.18c10.19,0,19.28-7.82,24-12.37V419.47c-6.55-.19-12.73-.37-17.1-.37-16.18,0-19.82,6.55-19.82,13.1C1479.94,438.2,1483.39,442.93,1492.85,442.93Z"/><path class="cls-1" d="M1686.35,337.08c1.27.91,1.27,2.55.36,4l-7.09,10.73c-1.46,2.18-3.28,2.18-5.27.91-7.82-4.91-12.37-7.27-20.74-7.27-7.64,0-17.09,4.73-17.09,16.36,0,10,11.63,14.37,22.91,20.56,16.73,9.09,31.83,14.55,31.83,40.55,0,24-18,38-42,38-16.74,0-26.37-4.54-38.74-13.64-1.28-.91-1.46-2.18-.55-3.63l7.28-11.64c.91-1.46,2.55-1.82,4.18-.55,10,7.46,15.1,10.73,27.28,10.73,11.1,0,20.37-7.64,20.37-18.73,0-13.64-10.91-17.46-22-23.46-17.1-9.1-32.74-14.37-32.74-37.1s14.55-36.56,38.37-36.56A56.49,56.49,0,0,1,1686.35,337.08Z"/><path class="cls-1" d="M1710.35,342c0-8,5.82-12,12.91-12,7.27,0,12.91,4,12.91,12,0,8.73-5.64,12-12.91,12C1716.17,354,1710.35,350.72,1710.35,342Zm2.73,28.92v85.48a2.4,2.4,0,0,0,2.72,2.72h15.1a2.41,2.41,0,0,0,2.73-2.72V370.91a2.41,2.41,0,0,0-2.73-2.73h-15.1A2.41,2.41,0,0,0,1713.08,370.91Z"/><path class="cls-1" d="M1842.2,405.46v.19c0,9.82-3.46,15.64-14.73,15.64l-50.2.36c2,16.91,12.37,21.82,27.83,21.28,10.55-.37,20.37-5.28,26-9.64,1.45-1.09,2.91-.18,4,1.64l5.46,9.64c.73,1.45-.54,2.72-1.63,3.45a58.14,58.14,0,0,1-37.29,12.91c-20.73,0-45.46-11.09-45.46-47.28,0-31.65,17.45-47.29,43.83-47.29C1833.83,366.36,1842.2,393.1,1842.2,405.46Zm-20.73,0c-1.28-15.45-7.1-21.09-22.38-21.09-12.91,0-20,6-21.82,21.09Z"/><path class="cls-1" d="M1944.4,401.64v54.75a2.41,2.41,0,0,1-2.73,2.72h-15.09a2.41,2.41,0,0,1-2.73-2.72V409.1c0-17.64-4.19-24.37-17.46-24.37-9.82,0-17.64,6.36-22.74,11.82v59.84a2.4,2.4,0,0,1-2.72,2.72h-15.1a2.41,2.41,0,0,1-2.73-2.72V370.91a2.41,2.41,0,0,1,2.73-2.73h6c7.28,0,11.82,4.55,11.82,11.64,6.55-6,17.1-13.46,29.83-13.46C1932.94,366.36,1944.4,375.45,1944.4,401.64Z"/><path class="cls-1" d="M2042.78,459.11h-6c-7.28,0-10.55-4.54-11.82-11.82l-.18-.73c-4.91,5.1-16.19,14.37-29.1,14.37-20,0-30.19-10.36-30.37-28.73s12.91-29.47,40.73-29.47c4.91,0,10.92.19,17.1.37v-5.46c0-9.27-8.19-13.27-19.1-13.27a48,48,0,0,0-21.46,4.73c-2,.91-3.64.36-4.54-1.28l-4.91-9.82a2.94,2.94,0,0,1,1.27-4.18c6.91-4,16.91-7.46,31.28-7.46,21.46,0,38,7.82,38,28.37v42a95.69,95.69,0,0,0,1.82,19.64C2045.87,458.2,2044.6,459.11,2042.78,459.11Zm-43.65-16.18c10.19,0,19.28-7.82,24-12.37V419.47c-6.55-.19-12.73-.37-17.1-.37-16.18,0-19.82,6.55-19.82,13.1C1986.22,438.2,1989.67,442.93,1999.13,442.93Z"/></g></g></svg>